<?xml version="1.0" encoding="UTF-8" standalone="no"?>
<svg
   xmlns:osb="http://www.openswatchbook.org/uri/2009/osb"
   xmlns:dc="http://purl.org/dc/elements/1.1/"
   xmlns:cc="http://creativecommons.org/ns#"
   xmlns:rdf="http://www.w3.org/1999/02/22-rdf-syntax-ns#"
   xmlns:svg="http://www.w3.org/2000/svg"
   xmlns="http://www.w3.org/2000/svg"
   xmlns:sodipodi="http://sodipodi.sourceforge.net/DTD/sodipodi-0.dtd"
   xmlns:inkscape="http://www.inkscape.org/namespaces/inkscape"
   version="1.1"
   viewBox="0 0 16 16"
   xml:space="preserve"
   id="svg5"
   sodipodi:docname="auto_scroll_off.svg"
   inkscape:version="1.0.1 (3bc2e813f5, 2020-09-07)"
   width="16"
   height="16"><metadata
     id="metadata11"><rdf:RDF><cc:Work
         rdf:about=""><dc:format>image/svg+xml</dc:format><dc:type
           rdf:resource="http://purl.org/dc/dcmitype/StillImage" /><dc:title /></cc:Work></rdf:RDF></metadata><defs
     id="defs9"><linearGradient
       id="linearGradient2794"
       osb:paint="solid"><stop
         style="stop-color:#000000;stop-opacity:1;"
         offset="0"
         id="stop2792" /></linearGradient></defs><sodipodi:namedview
     pagecolor="#ffffff"
     bordercolor="#666666"
     borderopacity="1"
     objecttolerance="10"
     gridtolerance="10"
     guidetolerance="10"
     inkscape:pageopacity="0"
     inkscape:pageshadow="2"
     inkscape:window-width="1920"
     inkscape:window-height="995"
     id="namedview7"
     showgrid="true"
     inkscape:zoom="32.965002"
     inkscape:cx="7.2686515"
     inkscape:cy="11.246645"
     inkscape:window-x="0"
     inkscape:window-y="0"
     inkscape:window-maximized="1"
     inkscape:current-layer="g874"
     inkscape:document-rotation="0"
     fit-margin-top="0"
     fit-margin-left="0"
     fit-margin-right="0"
     fit-margin-bottom="0"
     units="in"
     showguides="true"><inkscape:grid
       type="xygrid"
       id="grid840" /></sodipodi:namedview><g
     id="info"
     transform="translate(-5.0943534,-4.7968303)" /><g
     id="g867"
     transform="translate(-4,-8.2763377)"><g
       id="g874"><g
         id="g881"
         transform="translate(-2.5966268e-7,0.48665695)"><g
           id="icons"
           style="fill:#000000;fill-opacity:1"
           transform="matrix(0,0.46306737,-0.72898118,0,20.764295,12.869162)"><path
             d="M 3.9,18.9 V 5.1 c 0,-1.6 1.7,-2.6 3,-1.8 l 12,6.9 c 1.4,0.8 1.4,2.9 0,3.7 l -12,6.9 c -1.3,0.7 -3,-0.3 -3,-1.9 z"
             id="play"
             style="fill:#000000;fill-opacity:1" /></g><path
           d="m 16.685166,20.531659 c -0.140609,0.0033 -0.387656,0.01105 -0.693288,0.02257 l -0.307583,0.01152 h -4.520986 c -3.3414328,-4.5e-4 -4.5414993,9.35e-4 -4.5991101,0.0046 -0.2919628,0.01981 -0.4589359,0.05298 -0.6014953,0.119763 -0.069329,0.03178 -0.091793,0.04653 -0.1240154,0.07831 -0.022452,0.02165 -0.050777,0.05758 -0.062489,0.08061 l -0.022464,0.04145 v 0.644877 0.644878 l 0.02148,0.03915 c 0.087884,0.157534 0.3271201,0.241828 0.7762871,0.274534 0.0869,0.0065 0.1698977,0.0078 0.3983907,0.0078 1.3397013,-0.0013 1.8035123,-9.35e-4 2.4020829,0.0028 0.4052351,0.0023 1.1990891,0.0023 1.9285001,-4.5e-4 0.682545,-0.0023 2.364976,-0.006 3.739825,-0.0078 l 2.499726,-0.0033 0.07812,-0.01013 c 0.317342,-0.04145 0.506777,-0.146479 0.567313,-0.31599 0.01074,-0.02995 0.01757,-0.10226 0.02344,-0.251502 0.0048,-0.115157 0.01172,-0.216955 0.01465,-0.225707 0.0098,-0.03086 0.03516,-0.251963 0.04101,-0.363895 0.01172,-0.231696 -0.03712,-0.414564 -0.142561,-0.530181 -0.04687,-0.05159 -0.07812,-0.076 -0.138658,-0.110551 -0.143545,-0.08061 -0.391557,-0.129436 -0.7509,-0.146479 -0.114247,-0.0055 -0.414994,-0.0092 -0.527281,-0.0069 z"
           id="path1054"
           style="fill:#000000;stroke:none;stroke-width:0.000670652" /><g
           id="icons-3"
           style="fill:#000000;fill-opacity:1"
           transform="matrix(0,0.48747261,-0.72898118,0,20.764295,7.1720248)"><path
             d="M 3.9,18.9 V 5.1 c 0,-1.6 1.7,-2.6 3,-1.8 l 12,6.9 c 1.4,0.8 1.4,2.9 0,3.7 l -12,6.9 c -1.3,0.7 -3,-0.3 -3,-1.9 z"
             id="play-6"
             style="fill:#000000;fill-opacity:1" /></g></g><path
         style="fill:#a51d1e;stroke:#dd2a2b;stroke-width:0.98267717;stroke-linecap:butt;stroke-linejoin:miter;stroke-opacity:1;stroke-miterlimit:4;stroke-dasharray:none"
         d="M 19,9.2763377 5,23.276338 v 0"
         id="path844" /></g></g></svg>
