<?xml version="1.0" encoding="UTF-8" standalone="no"?>
<svg
   xmlns:dc="http://purl.org/dc/elements/1.1/"
   xmlns:cc="http://creativecommons.org/ns#"
   xmlns:rdf="http://www.w3.org/1999/02/22-rdf-syntax-ns#"
   xmlns:svg="http://www.w3.org/2000/svg"
   xmlns="http://www.w3.org/2000/svg"
   xmlns:xlink="http://www.w3.org/1999/xlink"
   xmlns:sodipodi="http://sodipodi.sourceforge.net/DTD/sodipodi-0.dtd"
   xmlns:inkscape="http://www.inkscape.org/namespaces/inkscape"
   style="enable-background:new 0 0 24 24;"
   version="1.1"
   viewBox="0 0 24 24"
   xml:space="preserve"
   id="svg5"
   sodipodi:docname="gears_1.svg"
   inkscape:version="1.0.1 (3bc2e813f5, 2020-09-07)"><metadata
     id="metadata11"><rdf:RDF><cc:Work
         rdf:about=""><dc:format>image/svg+xml</dc:format><dc:type
           rdf:resource="http://purl.org/dc/dcmitype/StillImage" /></cc:Work></rdf:RDF></metadata><defs
     id="defs9"><linearGradient
       inkscape:collect="always"
       id="linearGradient866"><stop
         style="stop-color:#000080;stop-opacity:1;"
         offset="0"
         id="stop862" /><stop
         style="stop-color:#ff0000;stop-opacity:1"
         offset="1"
         id="stop864" /></linearGradient><linearGradient
       inkscape:collect="always"
       xlink:href="#linearGradient866"
       id="linearGradient868"
       x1="0.79214767"
       y1="12"
       x2="27.132557"
       y2="11.943529"
       gradientUnits="userSpaceOnUse" /></defs><sodipodi:namedview
     pagecolor="#ffffff"
     bordercolor="#666666"
     borderopacity="1"
     objecttolerance="10"
     gridtolerance="10"
     guidetolerance="10"
     inkscape:pageopacity="0"
     inkscape:pageshadow="2"
     inkscape:window-width="1920"
     inkscape:window-height="1017"
     id="namedview7"
     showgrid="false"
     inkscape:zoom="35.416667"
     inkscape:cx="12"
     inkscape:cy="12"
     inkscape:window-x="-8"
     inkscape:window-y="-8"
     inkscape:window-maximized="1"
     inkscape:current-layer="svg5"
     inkscape:document-rotation="0" /><g
     id="info" /><g
     id="icons"
     style="fill:url(#linearGradient868);fill-opacity:1;opacity:0.8"
     transform="matrix(-1,0,0,1,24,0)"><path
       d="M 22.2,14.4 21,13.7 C 19.7,12.9 19.7,11 21,10.2 l 1.2,-0.7 c 1,-0.6 1.3,-1.8 0.7,-2.7 l -1,-1.7 C 21.3,4.1 20.1,3.8 19.2,4.4 L 18,5.1 C 16.7,5.9 15,4.9 15,3.4 V 2 C 15,0.9 14.1,0 13,0 H 11 C 9.9,0 9,0.9 9,2 V 3.3 C 9,4.8 7.3,5.8 6,5 L 4.8,4.4 C 3.8,3.8 2.6,4.2 2.1,5.1 l -1,1.7 C 0.6,7.8 0.9,9 1.8,9.6 L 3,10.3 C 4.3,11 4.3,13 3,13.7 l -1.2,0.7 c -1,0.6 -1.3,1.8 -0.7,2.7 l 1,1.7 c 0.6,1 1.8,1.3 2.7,0.7 L 6,18.9 c 1.3,-0.8 3,0.2 3,1.7 V 22 c 0,1.1 0.9,2 2,2 h 2 c 1.1,0 2,-0.9 2,-2 v -1.3 c 0,-1.5 1.7,-2.5 3,-1.7 l 1.2,0.7 c 1,0.6 2.2,0.2 2.7,-0.7 l 1,-1.7 C 23.4,16.2 23.1,15 22.2,14.4 Z M 12,16 C 9.8,16 8,14.2 8,12 8,9.8 9.8,8 12,8 c 2.2,0 4,1.8 4,4 0,2.2 -1.8,4 -4,4 z"
       id="settings"
       style="fill:url(#linearGradient868);fill-opacity:1" /></g></svg>
