<?xml version="1.0" standalone="no"?>
<!DOCTYPE svg PUBLIC "-//W3C//DTD SVG 20010904//EN"
 "http://www.w3.org/TR/2001/REC-SVG-20010904/DTD/svg10.dtd">
<svg version="1.0" xmlns="http://www.w3.org/2000/svg"
 width="1280.000000pt" height="640.000000pt" viewBox="0 0 1280.000000 640.000000"
 preserveAspectRatio="xMidYMid meet">
<metadata>
Created by potrace 1.15, written by Peter Selinger 2001-2017
</metadata>
<g transform="translate(0.000000,640.000000) scale(0.100000,-0.100000)"
fill="#000000" stroke="none">
<path d="M11200 5344 c-144 -7 -397 -24 -710 -49 l-315 -25 -4630 0 c-3422 1
-4651 -2 -4710 -10 -299 -43 -470 -115 -616 -260 -71 -69 -94 -101 -127 -170
-23 -47 -52 -125 -64 -175 l-23 -90 0 -1400 0 -1400 22 -85 c90 -342 335 -525
795 -596 89 -14 174 -17 408 -17 1372 3 1847 2 2460 -6 415 -5 1228 -5 1975 1
699 5 2422 13 3830 17 l2560 7 80 22 c325 90 519 318 581 686 11 65 18 222 24
546 5 250 12 471 15 490 10 67 36 547 42 790 12 503 -38 900 -146 1151 -48
112 -80 165 -142 240 -147 175 -401 281 -769 318 -117 12 -425 20 -540 15z"/>
</g>
</svg>
