<?xml version="1.0" encoding="UTF-8" standalone="no"?>
<svg
   xmlns:dc="http://purl.org/dc/elements/1.1/"
   xmlns:cc="http://creativecommons.org/ns#"
   xmlns:rdf="http://www.w3.org/1999/02/22-rdf-syntax-ns#"
   xmlns:svg="http://www.w3.org/2000/svg"
   xmlns="http://www.w3.org/2000/svg"
   xmlns:xlink="http://www.w3.org/1999/xlink"
   xmlns:sodipodi="http://sodipodi.sourceforge.net/DTD/sodipodi-0.dtd"
   xmlns:inkscape="http://www.inkscape.org/namespaces/inkscape"
   version="1.0"
   width="1140.000000pt"
   height="1280.000000pt"
   viewBox="0 0 1140.000000 1280.000000"
   preserveAspectRatio="xMidYMid meet"
   id="svg10"
   sodipodi:docname="pause.svg"
   inkscape:version="1.0.1 (3bc2e813f5, 2020-09-07)">
  <defs
     id="defs14">
    <linearGradient
       inkscape:collect="always"
       id="linearGradient836">
      <stop
         style="stop-color:#000080;stop-opacity:1"
         offset="0"
         id="stop832" />
      <stop
         style="stop-color:#ff0000;stop-opacity:0.8"
         offset="1"
         id="stop834" />
    </linearGradient>
    <linearGradient
       inkscape:collect="always"
       xlink:href="#linearGradient836"
       id="linearGradient838"
       x1="6"
       y1="6400.4348"
       x2="11394"
       y2="6400.4348"
       gradientUnits="userSpaceOnUse" />
  </defs>
  <sodipodi:namedview
     pagecolor="#ffffff"
     bordercolor="#666666"
     borderopacity="1"
     objecttolerance="10"
     gridtolerance="10"
     guidetolerance="10"
     inkscape:pageopacity="0"
     inkscape:pageshadow="2"
     inkscape:window-width="1920"
     inkscape:window-height="1017"
     id="namedview12"
     showgrid="false"
     inkscape:zoom="0.49804688"
     inkscape:cx="760"
     inkscape:cy="853.33333"
     inkscape:window-x="-8"
     inkscape:window-y="-8"
     inkscape:window-maximized="1"
     inkscape:current-layer="svg10"
     inkscape:document-rotation="0" />
  <metadata
     id="metadata2">
Created by potrace 1.15, written by Peter Selinger 2001-2017
<rdf:RDF>
  <cc:Work
     rdf:about="">
    <dc:format>image/svg+xml</dc:format>
    <dc:type
       rdf:resource="http://purl.org/dc/dcmitype/StillImage" />
  </cc:Work>
</rdf:RDF>
</metadata>
  <g
     transform="translate(0.000000,1280.000000) scale(0.100000,-0.100000)"
     fill="#000000"
     stroke="none"
     id="g8"
     style="fill:url(#linearGradient838);fill-opacity:1">
    <path
       d="M2157 12789 c-476 -46 -922 -218 -1240 -476 -240 -196 -437 -478 -527 -754 -139 -425 -242 -1194 -310 -2304 -5 -93 -12 -206 -15 -250 -11 -165 -35 -775 -47 -1180 -16 -545 -16 -2305 0 -2850 12 -405 36 -1015 47 -1180 3 -44 10 -156 15 -250 68 -1110 171 -1879 310 -2304 110 -337 353 -646 680 -866 108 -72 334 -183 470 -230 544 -188 1152 -192 1695 -10 588 196 1017 600 1185 1115 241 743 382 2636 382 5150 0 2514 -141 4407 -382 5150 -204 626 -792 1082 -1562 1209 -245 41 -483 51 -701 30z"
       id="path4"
       style="fill:url(#linearGradient838);fill-opacity:1" />
    <path
       d="M8750 12789 c-47 -5 -140 -18 -208 -30 -772 -129 -1358 -583 -1562 -1209 -241 -743 -382 -2636 -382 -5150 0 -2514 141 -4407 382 -5150 168 -515 597 -919 1185 -1115 543 -182 1151 -178 1695 10 136 47 362 158 470 230 327 220 570 529 680 866 139 425 242 1194 310 2304 5 94 12 206 15 250 11 165 35 775 47 1180 16 545 16 2305 0 2850 -12 405 -36 1015 -47 1180 -3 44 -10 157 -15 250 -68 1110 -171 1879 -310 2304 -70 214 -196 422 -360 594 -172 180 -318 286 -545 397 -225 110 -456 181 -718 221 -153 23 -502 33 -637 18z"
       id="path6"
       style="fill:url(#linearGradient838);fill-opacity:1" />
  </g>
</svg>
