<?xml version="1.0" encoding="UTF-8" standalone="no"?>
<svg
   xmlns:dc="http://purl.org/dc/elements/1.1/"
   xmlns:cc="http://creativecommons.org/ns#"
   xmlns:rdf="http://www.w3.org/1999/02/22-rdf-syntax-ns#"
   xmlns:svg="http://www.w3.org/2000/svg"
   xmlns="http://www.w3.org/2000/svg"
   xmlns:sodipodi="http://sodipodi.sourceforge.net/DTD/sodipodi-0.dtd"
   xmlns:inkscape="http://www.inkscape.org/namespaces/inkscape"
   version="1.0"
   width="1280.000000pt"
   height="1280.000000pt"
   viewBox="0 0 1280.000000 1280.000000"
   preserveAspectRatio="xMidYMid meet"
   id="svg12"
   sodipodi:docname="verbose.svg"
   inkscape:version="1.0.1 (3bc2e813f5, 2020-09-07)">
  <defs
     id="defs16" />
  <sodipodi:namedview
     pagecolor="#ffffff"
     bordercolor="#666666"
     borderopacity="1"
     objecttolerance="10"
     gridtolerance="10"
     guidetolerance="10"
     inkscape:pageopacity="0"
     inkscape:pageshadow="2"
     inkscape:window-width="1920"
     inkscape:window-height="995"
     id="namedview14"
     showgrid="true"
     inkscape:zoom="0.41894531"
     inkscape:cx="853.33333"
     inkscape:cy="852.13986"
     inkscape:window-x="0"
     inkscape:window-y="0"
     inkscape:window-maximized="1"
     inkscape:current-layer="svg12">
    <inkscape:grid
       type="xygrid"
       id="grid841" />
  </sodipodi:namedview>
  <metadata
     id="metadata2">
Created by potrace 1.15, written by Peter Selinger 2001-2017
<rdf:RDF>
  <cc:Work
     rdf:about="">
    <dc:format>image/svg+xml</dc:format>
    <dc:type
       rdf:resource="http://purl.org/dc/dcmitype/StillImage" />
  </cc:Work>
</rdf:RDF>
</metadata>
  <g
     transform="translate(0.000000,1280.000000) scale(0.100000,-0.100000)"
     fill="#000000"
     stroke="none"
     id="g10">
    <path
       d="M7231 11725 c-153 -35 -224 -68 -368 -176 -141 -105 -329 -294 -518 -519 -94 -113 -850 -1013 -1680 -2000 l-1508 -1795 -501 -111 c-275 -61 -832 -184 -1236 -273 -404 -89 -756 -169 -781 -177 -196 -63 -280 -375 -251 -931 32 -605 163 -1293 347 -1823 104 -296 231 -506 352 -577 97 -56 41 -56 1268 -1 l1124 51 1473 -979 c1353 -900 1480 -986 1561 -1066 198 -196 403 -288 642 -288 319 1 613 205 870 605 473 734 824 2214 940 3964 35 520 37 1430 5 2016 -111 2052 -494 3446 -1072 3909 -94 75 -184 125 -283 156 -91 29 -289 37 -384 15z"
       id="path4" />
    <path
       d="M10370 10761 c270 -318 471 -625 674 -1031 418 -838 667 -1826 736 -2920 13 -211 13 -837 0 -1045 -100 -1589 -591 -2991 -1368 -3907 -45 -54 -79 -98 -75 -98 15 0 201 105 286 162 885 590 1527 1844 1732 3378 95 714 80 1521 -41 2235 -244 1441 -885 2600 -1739 3142 -66 41 -197 114 -240 132 -5 2 11 -19 35 -48z"
       id="path6" />
    <path
       d="M9208 10113 c252 -288 521 -740 705 -1183 518 -1251 639 -2832 326 -4250 -192 -872 -560 -1672 -1013 -2205 -87 -102 -87 -102 9 -51 290 156 553 389 788 699 419 550 720 1322 851 2177 114 748 96 1526 -54 2270 -150 744 -436 1408 -824 1910 -157 204 -396 431 -589 559 -78 52 -235 141 -250 141 -5 0 18 -30 51 -67z"
       id="path8" />
  </g>
  <path
     style="fill:#dd2a2b;stroke:#dd2a2b;stroke-width:85.0393721;stroke-linecap:butt;stroke-linejoin:miter;stroke-opacity:1;stroke-miterlimit:4;stroke-dasharray:none;fill-opacity:1"
     d="M 75.000002,1215 1200,75.000002"
     id="path843" />
</svg>
