<?xml version="1.0" standalone="no"?>
<!DOCTYPE svg PUBLIC "-//W3C//DTD SVG 20010904//EN"
 "http://www.w3.org/TR/2001/REC-SVG-20010904/DTD/svg10.dtd">
<svg version="1.0" xmlns="http://www.w3.org/2000/svg"
 width="1280.000000pt" height="1280.000000pt" viewBox="0 0 1280.000000 1280.000000"
 preserveAspectRatio="xMidYMid meet">
<metadata>
Created by potrace 1.15, written by Peter Selinger 2001-2017
</metadata>
<g transform="translate(0.000000,1280.000000) scale(0.100000,-0.100000)"
fill="#000000" stroke="none">
<path d="M4760 12785 c-775 -61 -1503 -283 -2158 -656 -1405 -803 -2350 -2214
-2557 -3819 -42 -324 -45 -437 -45 -1910 0 -1473 3 -1586 45 -1910 98 -764
366 -1496 783 -2140 773 -1194 2007 -2018 3393 -2266 455 -81 530 -84 2179
-84 1484 0 1615 3 1929 45 660 87 1302 303 1869 626 1405 803 2350 2214 2557
3819 42 324 45 437 45 1910 0 1473 -3 1586 -45 1910 -98 764 -366 1496 -783
2140 -773 1194 -2007 2018 -3393 2266 -458 82 -526 84 -2204 83 -1088 -1
-1491 -5 -1615 -14z"/>
</g>
</svg>
