<?xml version="1.0" encoding="UTF-8" standalone="no"?>
<svg
   xmlns:dc="http://purl.org/dc/elements/1.1/"
   xmlns:cc="http://creativecommons.org/ns#"
   xmlns:rdf="http://www.w3.org/1999/02/22-rdf-syntax-ns#"
   xmlns:svg="http://www.w3.org/2000/svg"
   xmlns="http://www.w3.org/2000/svg"
   xmlns:sodipodi="http://sodipodi.sourceforge.net/DTD/sodipodi-0.dtd"
   xmlns:inkscape="http://www.inkscape.org/namespaces/inkscape"
   version="1.0"
   width="1212.000000pt"
   height="1280.000000pt"
   viewBox="0 0 1212.000000 1280.000000"
   preserveAspectRatio="xMidYMid meet"
   id="svg8"
   sodipodi:docname="wrap_lines_off.svg"
   inkscape:version="1.0.1 (3bc2e813f5, 2020-09-07)">
  <defs
     id="defs12" />
  <sodipodi:namedview
     pagecolor="#ffffff"
     bordercolor="#666666"
     borderopacity="1"
     objecttolerance="10"
     gridtolerance="10"
     guidetolerance="10"
     inkscape:pageopacity="0"
     inkscape:pageshadow="2"
     inkscape:window-width="1920"
     inkscape:window-height="995"
     id="namedview10"
     showgrid="true"
     inkscape:zoom="0.28493347"
     inkscape:cx="381.29983"
     inkscape:cy="1172.974"
     inkscape:window-x="0"
     inkscape:window-y="0"
     inkscape:window-maximized="1"
     inkscape:current-layer="g6"
     inkscape:document-rotation="0">
    <inkscape:grid
       type="xygrid"
       id="grid831" />
  </sodipodi:namedview>
  <metadata
     id="metadata2">
Created by potrace 1.15, written by Peter Selinger 2001-2017
<rdf:RDF>
  <cc:Work
     rdf:about="">
    <dc:format>image/svg+xml</dc:format>
    <dc:type
       rdf:resource="http://purl.org/dc/dcmitype/StillImage" />
    <dc:title></dc:title>
  </cc:Work>
</rdf:RDF>
</metadata>
  <g
     transform="matrix(-0.1,0,0,-0.1,1211.5032,1280)"
     fill="#000000"
     stroke="none"
     id="g6">
    <path
       d="m 4021.3053,12222.796 c -61.4967,15.737 -108.2584,12.959 -161.1185,-8.101 l -49.6981,-20.206 -100.0496,-150.01 C 2307.701,9940.282 1834.9306,8052.1392 2287.8141,6368.5763 c 60.8581,-224.9096 188.7342,-569.0354 290.587,-784.5221 481.5767,-1013.677 1305.795,-1884.7464 2486.8676,-2626.2423 269.9223,-169.6623 762.2487,-429.963 1075.5802,-567.2919 77.5703,-34.128 140.8544,-62.9735 140.8544,-62.9735 0.3721,-1.0712 -48.986,-56.0972 -109.3539,-123.2322 C 5287.3263,1211.9574 4944.7588,824.28791 4931.8911,797.61932 c -25.3633,-54.40829 4.7449,-135.08438 68.6268,-181.5756 56.7755,-39.97406 115.7048,-54.29636 203.1273,-47.10548 167.6651,13.14713 4674.3852,623.43826 4702.3207,636.60076 45.792,21.4954 72.536,50.0342 82.054,86.3425 12.3431,52.0662 -306.3579,4233.9049 -327.5337,4288.875 -44.6962,114.6964 -205.1174,170.2808 -329.9943,113.6193 -27.9364,-13.1624 -99.3141,-92.4063 -1243.9223,-1378.8105 -91.5746,-102.7359 -169.499,-187.0269 -173.5167,-187.4083 -13.3924,-1.271 -266.6751,98.6073 -426.5777,168.6241 -208.1561,91.4377 -609.1828,303.9769 -827.7246,439.2383 -267.0944,165.5051 -549.2985,370.5129 -775.1404,562.6145 -94.8017,81.7276 -276.3696,245.9456 -306.1728,277.9686 -7.4786,7.5883 -52.7227,54.1889 -101.7616,103.7484 -645.358,652.9338 -1124.452,1484.2894 -1367.4365,2370.6933 -311.4358,1137.1462 -297.4112,2378.7588 44.0308,3820.7268 21.3775,87.775 36.5427,175.515 35.0888,193.631 -3.0564,40.648 -54.0327,107.725 -97.6736,131.797 -17.5977,8.84 -47.8813,20.35 -68.38,25.597 z"
       id="path4"
       style="stroke-width:0.860737" />
    <path
       style="fill:none;stroke:#dd2a2b;stroke-width:850.39371091;stroke-linecap:butt;stroke-linejoin:miter;stroke-opacity:1;stroke-miterlimit:4;stroke-dasharray:none"
       d="M 1315.0319,11600 10915.032,1099.9998"
       id="path835" />
  </g>
</svg>
